<?xml version="1.0" standalone="no"?>
<!DOCTYPE svg PUBLIC "-//W3C//DTD SVG 20010904//EN"
 "http://www.w3.org/TR/2001/REC-SVG-20010904/DTD/svg10.dtd">
<svg version="1.0" xmlns="http://www.w3.org/2000/svg"
 width="750.000000pt" height="750.000000pt" viewBox="0 0 750.000000 750.000000"
 preserveAspectRatio="xMidYMid meet">
<metadata>
Created by potrace 1.14, written by Peter Selinger 2001-2017
</metadata>
<g transform="translate(0.000000,750.000000) scale(0.100000,-0.100000)"
fill="#000000" stroke="none">
<path d="M0 3750 l0 -3750 3750 0 3750 0 0 3750 0 3750 -3750 0 -3750 0 0
-3750z m4319 2885 c194 -25 615 -120 861 -195 52 -16 112 -32 133 -36 l38 -6
-5 -77 c-3 -42 -13 -292 -21 -556 -9 -264 -18 -513 -21 -552 l-6 -73 -226 0
-227 0 -75 461 -74 461 -44 30 c-149 102 -478 178 -775 178 -500 0 -831 -154
-972 -451 -110 -232 -110 -567 0 -780 46 -88 177 -237 291 -330 133 -109 291
-197 889 -494 829 -413 951 -485 1168 -694 231 -222 366 -453 413 -706 25
-132 29 -323 10 -455 -51 -357 -241 -704 -507 -926 -329 -273 -679 -417 -1141
-469 -153 -17 -488 -20 -658 -5 -278 24 -629 106 -1131 263 -80 25 -169 49
-197 53 -48 6 -52 9 -52 33 0 57 50 1210 56 1269 l6 62 238 0 239 0 6 -52 c4
-29 32 -249 63 -488 l57 -434 50 -38 c164 -125 465 -224 784 -258 231 -26 573
4 748 64 326 111 535 332 604 635 33 147 30 378 -8 496 -55 175 -126 280 -292
429 -157 141 -379 263 -928 512 -584 264 -855 424 -1080 639 -345 329 -496
680 -480 1115 9 228 39 357 127 535 64 131 112 202 209 311 260 291 654 472
1171 539 139 18 587 13 759 -10z"/>
</g>
</svg>
